<svg width="204" height="37" viewBox="0 0 204 37" fill="none" xmlns="http://www.w3.org/2000/svg">
<path d="M11.4075 28.5782C9.48632 28.5782 8.00537 28.2313 6.96471 27.5375C5.95073 26.8437 5.19025 26.0699 4.68326 25.216H4.04285V28.0178H0.000274172V-3.05188e-05H4.1229V10.967H4.76331C5.08351 10.4333 5.51045 9.9263 6.04413 9.44599C6.5778 8.939 7.28492 8.5254 8.16548 8.2052C9.04604 7.88499 10.1267 7.72489 11.4075 7.72489C13.0619 7.72489 14.5829 8.12515 15.9704 8.92566C17.358 9.72617 18.4654 10.8869 19.2926 12.4079C20.1198 13.9288 20.5334 15.7433 20.5334 17.8513V18.4517C20.5334 20.5864 20.1064 22.4143 19.2525 23.9352C18.4253 25.4295 17.318 26.5769 15.9304 27.3774C14.5696 28.1779 13.0619 28.5782 11.4075 28.5782ZM10.2068 24.9759C11.9946 24.9759 13.4622 24.4022 14.6096 23.2548C15.7837 22.1074 16.3707 20.4663 16.3707 18.3317V17.9714C16.3707 15.8634 15.797 14.2357 14.6496 13.0883C13.5022 11.9409 12.0213 11.3672 10.2068 11.3672C8.44566 11.3672 6.97805 11.9409 5.80397 13.0883C4.65657 14.2357 4.08288 15.8634 4.08288 17.9714V18.3317C4.08288 20.4663 4.65657 22.1074 5.80397 23.2548C6.97805 24.4022 8.44566 24.9759 10.2068 24.9759ZM34.3128 28.5782C32.3115 28.5782 30.5637 28.1646 29.0694 27.3374C27.5752 26.4835 26.4011 25.2961 25.5472 23.7751C24.72 22.2275 24.3064 20.4397 24.3064 18.4117V17.9314C24.3064 15.8768 24.72 14.0889 25.5472 12.568C26.3744 11.0203 27.5218 9.8329 28.9894 9.00571C30.4837 8.15183 32.2048 7.72489 34.1527 7.72489C36.0472 7.72489 37.7016 8.15183 39.1158 9.00571C40.5568 9.8329 41.6775 10.9936 42.478 12.4879C43.2785 13.9822 43.6788 15.73 43.6788 17.7313V19.2923H28.5091C28.5625 21.0267 29.1362 22.4143 30.2302 23.4549C31.3509 24.4689 32.7384 24.9759 34.3928 24.9759C35.9405 24.9759 37.1012 24.629 37.8751 23.9352C38.6756 23.2414 39.2893 22.4409 39.7162 21.5337L43.1184 23.2948C42.7448 24.042 42.1978 24.8291 41.4774 25.6563C40.7836 26.4835 39.863 27.1773 38.7156 27.7376C37.5682 28.298 36.1006 28.5782 34.3128 28.5782ZM28.5491 16.1302H39.4761C39.3693 14.636 38.8357 13.4752 37.8751 12.648C36.9144 11.7942 35.6603 11.3672 34.1127 11.3672C32.565 11.3672 31.2975 11.7942 30.3102 12.648C29.3496 13.4752 28.7626 14.636 28.5491 16.1302ZM48.2667 28.0178V8.28525H52.3093V10.6067H52.9497C53.2699 9.77953 53.7769 9.17915 54.4707 8.80558C55.1911 8.40533 56.0717 8.2052 57.1123 8.2052H59.4738V11.9276H56.9522C55.6181 11.9276 54.524 12.3011 53.6701 13.0483C52.8163 13.7687 52.3893 14.8895 52.3893 16.4104V28.0178H48.2667ZM63.3707 28.0178V8.28525H67.4133V10.6067H68.0537C68.3739 9.77953 68.8809 9.17915 69.5747 8.80558C70.2951 8.40533 71.1757 8.2052 72.2164 8.2052H74.5779V11.9276H72.0563C70.7221 11.9276 69.628 12.3011 68.7742 13.0483C67.9203 13.7687 67.4934 14.8895 67.4934 16.4104V28.0178H63.3707ZM80.7562 36.0229V32.4206H91.7632C92.5104 32.4206 92.8839 32.0204 92.8839 31.2199V25.136H92.2435C92.0034 25.6697 91.6298 26.19 91.1228 26.697C90.6425 27.1773 89.9888 27.5775 89.1616 27.8977C88.3344 28.2179 87.2937 28.3781 86.0396 28.3781C84.5453 28.3781 83.2111 28.0445 82.037 27.3774C80.8629 26.7103 79.9424 25.7631 79.2753 24.5356C78.6082 23.3082 78.2746 21.8539 78.2746 20.1728V8.28525H82.3973V19.8526C82.3973 21.5604 82.8242 22.8278 83.6781 23.655C84.5319 24.4556 85.7194 24.8558 87.2403 24.8558C88.9214 24.8558 90.2689 24.2955 91.2829 23.1747C92.3236 22.054 92.8439 20.4263 92.8439 18.2916V8.28525H96.9665V32.0604C96.9665 33.2612 96.6063 34.2218 95.8858 34.9422C95.1921 35.6627 94.2315 36.0229 93.004 36.0229H80.7562ZM114.093 28.5782C112.172 28.5782 110.691 28.2313 109.651 27.5375C108.637 26.8437 107.876 26.0699 107.369 25.216H106.729V28.0178H102.686V-3.05188e-05H106.809V10.967H107.449C107.769 10.4333 108.196 9.9263 108.73 9.44599C109.264 8.939 109.971 8.5254 110.851 8.2052C111.732 7.88499 112.813 7.72489 114.093 7.72489C115.748 7.72489 117.269 8.12515 118.656 8.92566C120.044 9.72617 121.151 10.8869 121.978 12.4079C122.806 13.9288 123.219 15.7433 123.219 17.8513V18.4517C123.219 20.5864 122.792 22.4143 121.938 23.9352C121.111 25.4295 120.004 26.5769 118.616 27.3774C117.255 28.1779 115.748 28.5782 114.093 28.5782ZM112.893 24.9759C114.68 24.9759 116.148 24.4022 117.295 23.2548C118.47 22.1074 119.057 20.4663 119.057 18.3317V17.9714C119.057 15.8634 118.483 14.2357 117.335 13.0883C116.188 11.9409 114.707 11.3672 112.893 11.3672C111.132 11.3672 109.664 11.9409 108.49 13.0883C107.342 14.2357 106.769 15.8634 106.769 17.9714V18.3317C106.769 20.4663 107.342 22.1074 108.49 23.2548C109.664 24.4022 111.132 24.9759 112.893 24.9759ZM127.953 28.0178V-3.05188e-05H132.076V28.0178H127.953ZM147.065 28.5782C145.09 28.5782 143.329 28.1779 141.782 27.3774C140.261 26.5502 139.06 25.3761 138.179 23.8552C137.299 22.3342 136.859 20.5331 136.859 18.4517V17.8513C136.859 15.77 137.299 13.9822 138.179 12.4879C139.06 10.967 140.261 9.79288 141.782 8.96568C143.329 8.13849 145.09 7.72489 147.065 7.72489C149.04 7.72489 150.801 8.13849 152.348 8.96568C153.896 9.79288 155.11 10.967 155.991 12.4879C156.871 13.9822 157.312 15.77 157.312 17.8513V18.4517C157.312 20.5331 156.871 22.3342 155.991 23.8552C155.11 25.3761 153.896 26.5502 152.348 27.3774C150.801 28.1779 149.04 28.5782 147.065 28.5782ZM147.065 24.8958C148.88 24.8958 150.347 24.3221 151.468 23.1747C152.615 22.0007 153.189 20.3863 153.189 18.3317V17.9714C153.189 15.9168 152.629 14.3158 151.508 13.1684C150.387 11.9943 148.906 11.4072 147.065 11.4072C145.277 11.4072 143.81 11.9943 142.662 13.1684C141.542 14.3158 140.981 15.9168 140.981 17.9714V18.3317C140.981 20.3863 141.542 22.0007 142.662 23.1747C143.81 24.3221 145.277 24.8958 147.065 24.8958ZM171.236 28.5782C169.341 28.5782 167.62 28.1779 166.072 27.3774C164.551 26.5769 163.337 25.4162 162.43 23.8952C161.549 22.3742 161.109 20.5464 161.109 18.4117V17.8914C161.109 15.7567 161.549 13.9422 162.43 12.4479C163.337 10.9269 164.551 9.76619 166.072 8.96568C167.62 8.13849 169.341 7.72489 171.236 7.72489C173.13 7.72489 174.744 8.07178 176.079 8.76555C177.413 9.45933 178.48 10.3799 179.281 11.5273C180.108 12.6747 180.642 13.9422 180.882 15.3297L176.879 16.1703C176.746 15.2897 176.466 14.4892 176.039 13.7687C175.612 13.0483 175.011 12.4746 174.237 12.0476C173.464 11.6207 172.49 11.4072 171.316 11.4072C170.168 11.4072 169.128 11.6741 168.194 12.2077C167.286 12.7147 166.566 13.4619 166.032 14.4492C165.499 15.4098 165.232 16.5839 165.232 17.9714V18.3317C165.232 19.7192 165.499 20.9066 166.032 21.8939C166.566 22.8812 167.286 23.6284 168.194 24.1353C169.128 24.6423 170.168 24.8958 171.316 24.8958C173.05 24.8958 174.371 24.4556 175.278 23.575C176.185 22.6677 176.759 21.5203 176.999 20.1328L181.002 21.0534C180.682 22.4143 180.108 23.6684 179.281 24.8158C178.48 25.9632 177.413 26.8838 176.079 27.5775C174.744 28.2446 173.13 28.5782 171.236 28.5782ZM185.382 28.0178V-3.05188e-05H189.505V15.9701H190.145L197.91 8.28525H203.394L193.427 17.8513L203.714 28.0178H198.27L190.145 19.8126H189.505V28.0178H185.382Z" fill="black"/>
</svg>
