<?xml version="1.0" standalone="no"?>
<!DOCTYPE svg PUBLIC "-//W3C//DTD SVG 20010904//EN"
 "http://www.w3.org/TR/2001/REC-SVG-20010904/DTD/svg10.dtd">
<svg version="1.0" xmlns="http://www.w3.org/2000/svg"
 width="600.000000pt" height="315.000000pt" viewBox="0 0 600.000000 315.000000"
 preserveAspectRatio="xMidYMid meet">

<g transform="translate(0.000000,315.000000) scale(0.100000,-0.100000)"
fill="#000000" stroke="none">
<path d="M722 2013 l-150 -258 27 -22 c14 -13 31 -23 36 -23 6 0 60 86 120
190 61 105 114 191 119 193 8 2 213 -338 229 -378 3 -8 77 23 77 33 0 5 -291
507 -300 515 -4 5 -75 -108 -158 -250z"/>
<path d="M371 1834 c-27 -34 -27 -74 -1 -102 28 -30 62 -36 98 -18 30 15 30
15 169 -74 l139 -89 -4 -36 c-4 -31 -13 -42 -63 -76 -44 -29 -65 -38 -83 -33
-28 7 -66 -24 -66 -54 0 -24 31 -52 57 -52 23 0 53 29 53 53 0 9 25 34 55 56
l56 39 39 -26 40 -26 0 -146 0 -146 -30 -22 c-59 -44 -28 -142 46 -142 32 0
69 27 78 58 9 28 -9 68 -39 88 -25 16 -25 16 -25 170 0 123 3 154 14 154 7 0
25 9 39 20 l25 20 56 -37 c30 -21 55 -45 56 -53 0 -27 30 -60 54 -60 28 0 56
29 56 58 0 27 -42 56 -69 47 -14 -4 -38 6 -81 36 -54 39 -60 46 -60 78 1 35 4
38 137 122 132 84 136 86 164 72 69 -34 140 38 105 106 -17 32 -34 41 -75 41
-40 0 -63 -21 -70 -65 -6 -37 -13 -43 -142 -127 l-135 -88 -37 18 c-36 17 -36
18 -37 75 0 44 5 62 20 77 24 24 26 53 4 74 -21 21 -57 20 -77 -2 -22 -24 -21
-44 3 -75 14 -17 20 -40 20 -75 0 -46 -3 -52 -34 -71 l-34 -22 -141 92 c-113
73 -141 96 -141 114 0 12 -9 34 -21 49 -16 20 -29 26 -59 26 -30 0 -43 -6 -59
-26z"/>
<path d="M1857 1783 c-4 -7 -76 -185 -148 -365 l-19 -48 29 0 c25 0 31 6 48
53 l20 52 98 0 98 0 20 -52 c17 -47 23 -53 48 -53 l29 0 -17 43 c-147 369
-148 372 -175 375 -14 2 -28 -1 -31 -5z m67 -156 c20 -51 36 -96 36 -100 0 -4
-34 -7 -75 -7 -41 0 -75 3 -75 7 0 10 71 193 75 193 2 0 19 -42 39 -93z"/>
<path d="M2202 1626 c3 -188 9 -202 89 -244 76 -40 160 -20 213 52 19 25 21
44 24 192 l3 164 -25 0 -26 0 0 -132 c0 -73 -5 -150 -11 -171 -24 -87 -145
-104 -196 -28 -15 21 -19 53 -21 179 l-4 152 -25 0 -24 0 3 -164z"/>
<path d="M2670 1765 c0 -24 2 -25 65 -25 l65 0 0 -185 0 -185 30 0 30 0 0 185
0 185 65 0 c63 0 65 1 65 25 l0 25 -160 0 -160 0 0 -25z"/>
<path d="M3137 1783 c-4 -3 -7 -98 -7 -210 l0 -203 30 0 30 0 0 95 0 95 115 0
115 0 0 -95 c0 -95 0 -95 25 -95 l25 0 0 210 0 210 -25 0 c-25 0 -25 0 -25
-95 l0 -95 -115 0 -115 0 0 95 c0 93 -1 95 -23 95 -13 0 -27 -3 -30 -7z"/>
<path d="M3761 1779 c-72 -29 -118 -92 -128 -177 -8 -70 12 -130 61 -178 54
-54 110 -71 185 -56 112 23 166 100 159 228 -3 63 -7 78 -34 111 -56 70 -166
103 -243 72z m157 -59 c47 -29 76 -98 69 -163 -12 -98 -71 -152 -160 -144 -85
7 -137 68 -137 160 0 61 19 106 59 140 42 35 118 38 169 7z"/>
<path d="M4208 1784 c-5 -4 -8 -99 -8 -211 l0 -203 30 0 30 0 0 85 0 85 33 0
c29 -1 38 -9 92 -85 54 -76 63 -85 92 -85 l33 0 -65 89 c-36 48 -65 91 -65 95
0 3 7 6 16 6 8 0 29 13 45 29 24 24 29 38 29 76 0 58 -12 80 -52 101 -35 18
-197 32 -210 18z m186 -65 c33 -26 34 -68 4 -104 -18 -20 -35 -27 -80 -32
l-58 -6 0 82 0 81 54 0 c39 0 60 -6 80 -21z"/>
<path d="M4650 1580 l0 -210 25 0 25 0 0 210 0 210 -25 0 -25 0 0 -210z"/>
<path d="M4840 1765 c0 -24 2 -25 70 -25 l70 0 0 -185 0 -185 25 0 25 0 0 185
0 185 70 0 c68 0 70 1 70 25 l0 25 -165 0 -165 0 0 -25z"/>
<path d="M5307 1598 c-42 -106 -79 -201 -83 -211 -6 -16 -2 -18 22 -15 24 2
32 11 49 56 l20 52 96 0 96 0 20 -52 c17 -44 25 -54 47 -56 14 -2 26 0 26 5 0
4 -36 99 -81 211 -78 193 -82 202 -108 202 -26 0 -31 -9 -104 -192z m143 30
c19 -51 37 -96 38 -100 2 -4 -30 -8 -72 -8 -48 0 -76 4 -76 11 0 16 64 189 70
189 3 0 21 -41 40 -92z"/>
<path d="M5795 1781 c-43 -19 -70 -60 -70 -107 0 -57 28 -85 115 -116 74 -27
94 -52 78 -99 -19 -54 -82 -65 -150 -27 -33 19 -40 20 -48 8 -15 -23 -12 -29
23 -50 70 -43 149 -35 202 20 23 24 29 39 29 79 1 61 -17 83 -93 111 -78 29
-101 46 -101 74 0 40 10 54 45 66 29 9 42 8 80 -9 44 -19 45 -19 55 -1 8 16 6
22 -16 36 -29 20 -119 28 -149 15z"/>
<path d="M477 1588 c-134 -228 -407 -701 -407 -704 0 -2 38 21 85 52 188 122
391 195 618 219 l57 6 0 40 0 39 -47 0 c-105 0 -342 -58 -436 -107 -16 -8 -31
-12 -33 -10 -3 2 61 118 141 258 137 237 145 254 128 267 -50 37 -49 38 -106
-60z"/>
<path d="M1195 1664 c-11 -9 -26 -19 -33 -23 -9 -5 30 -80 137 -266 83 -143
149 -260 147 -262 -1 -1 -34 11 -74 27 -133 54 -326 100 -421 100 -35 0 -36
-1 -36 -37 0 -43 11 -51 68 -52 147 -3 432 -104 621 -220 37 -23 69 -41 71
-39 3 4 -439 766 -451 778 -5 5 -18 2 -29 -6z"/>
</g>
</svg>
