<svg width="300" height="49" viewBox="0 0 300 49" fill="none" xmlns="http://www.w3.org/2000/svg">
<path d="M93.4272 4.76865H77.2472V8.79779H89.1263C91.5191 8.79779 93.4272 10.7273 93.4272 13.0823V16.6008C93.4272 18.9842 91.5191 20.8852 89.1263 20.8852H73.2021V16.8561H89.3828V12.827H77.5036C75.1107 12.827 73.2021 10.8975 73.2021 8.54243V5.02402C73.2021 2.64058 75.1107 0.739502 77.5036 0.739502H93.4272V4.76865Z" fill="black"/>
<path d="M113.042 0.739502C115.435 0.739502 117.372 2.64058 117.372 5.02402V16.6008C117.372 18.9842 115.435 20.8852 113.042 20.8852H100.594C98.2009 20.8852 96.292 18.9842 96.292 16.6008V5.02402C96.292 2.64058 98.2009 0.739502 100.594 0.739502H113.042ZM113.298 4.76865H100.337V16.8561H113.298V4.76865Z" fill="black"/>
<path d="M124.574 16.7141H140.355V21.0555H123.008C121.469 21.0555 120.216 19.807 120.216 18.2747V0.569214H124.574V16.7141Z" fill="black"/>
<path d="M160.77 0.739502C162.707 0.739502 164.274 2.27171 164.274 4.20116V20.8852H160.201V14.2741H147.239V20.8852H143.194V4.20116C143.194 2.27171 144.732 0.739502 146.669 0.739502H160.77ZM160.201 4.76865H147.239V10.2449H160.201V4.76865Z" fill="black"/>
<path d="M184.126 0.739502H188.199V18.2748C188.199 19.7219 187.002 20.8852 185.55 20.8852H182.416C181.419 20.9136 180.536 20.3745 180.08 19.4949L172.218 4.76865H171.164V20.8852H167.119V3.37831C167.119 1.90285 168.287 0.739502 169.739 0.739502H173.044C174.013 0.739502 174.924 1.25024 175.38 2.12984L183.243 16.8561H184.126V0.739502Z" fill="black"/>
<path d="M208.619 0.739502C210.556 0.739502 212.123 2.27171 212.123 4.20116V20.8852H208.049V14.2741H195.087V20.8852H191.043V4.20116C191.043 2.27171 192.581 0.739502 194.518 0.739502H208.619ZM208.049 4.76865H195.087V10.2449H208.049V4.76865Z" fill="black"/>
<path d="M93.0288 31.2768H77.2472V35.3059H93.0288V39.3351H77.2472V47.3934H73.2021V27.2477H93.0288V31.2768Z" fill="black"/>
<path d="M112.625 27.2477C115.018 27.2477 116.955 29.1487 116.955 31.5321V43.1089C116.955 45.4923 115.018 47.3934 112.625 47.3934H100.176C97.7831 47.3934 95.875 45.4923 95.875 43.1089V31.5321C95.875 29.1487 97.7831 27.2477 100.176 27.2477H112.625ZM112.881 31.2768H99.9194V43.3643H112.881V31.2768Z" fill="black"/>
<path d="M136.804 27.2477H140.878V40.6403C140.849 44.3857 137.83 47.3934 134.07 47.3934H126.578C122.818 47.3934 119.798 44.3857 119.798 40.6403V27.2477H123.843V39.8175C123.843 41.7753 125.438 43.3643 127.404 43.3643H133.244C135.209 43.3643 136.804 41.7753 136.804 39.8175V27.2477Z" fill="black"/>
<path d="M160.729 27.2477H164.802V44.7829C164.802 46.23 163.607 47.3933 162.153 47.3933H159.02C158.023 47.4218 157.14 46.8826 156.684 46.003L148.822 31.2768H147.768V47.3933H143.723V29.8865C143.723 28.411 144.891 27.2477 146.344 27.2477H149.648C150.616 27.2477 151.528 27.7584 151.984 28.638L159.846 43.3643H160.729V27.2477Z" fill="black"/>
<path d="M181.918 27.2477C185.679 27.2477 188.698 30.2837 188.726 34.0007V40.6403C188.698 44.3857 185.679 47.3934 181.918 47.3934H167.646V27.2477H181.918ZM184.653 34.8519C184.653 32.8657 183.058 31.2768 181.092 31.2768H171.692V43.3643H181.092C183.058 43.3643 184.653 41.7753 184.653 39.8175V34.8519Z" fill="black"/>
<path d="M209.147 27.2477C211.084 27.2477 212.651 28.7799 212.651 30.7093V47.3934H208.578V40.7822H195.616V47.3934H191.571V30.7093C191.571 28.7799 193.109 27.2477 195.046 27.2477H209.147ZM208.578 31.2768H195.616V36.753H208.578V31.2768Z" fill="black"/>
<path d="M215.495 27.2477H235.72V31.2768H227.631V47.3934H223.585V31.2768H215.495V27.2477Z" fill="black"/>
<path d="M242.63 47.3934H238.585V27.2477H242.63V47.3934Z" fill="black"/>
<path d="M262.233 27.2477C264.626 27.2477 266.563 29.1487 266.563 31.5321V43.1089C266.563 45.4923 264.626 47.3934 262.233 47.3934H249.784C247.391 47.3934 245.483 45.4923 245.483 43.1089V31.5321C245.483 29.1487 247.391 27.2477 249.784 27.2477H262.233ZM262.49 31.2768H249.529V43.3643H262.49V31.2768Z" fill="black"/>
<path d="M286.414 27.2477H290.488V44.7829C290.488 46.23 289.291 47.3933 287.839 47.3933H284.705C283.708 47.4218 282.825 46.8826 282.369 46.003L274.507 31.2768H273.453V47.3933H269.408V29.8865C269.408 28.411 270.576 27.2477 272.028 27.2477H275.333C276.302 27.2477 277.213 27.7584 277.669 28.638L285.531 43.3643H286.414V27.2477Z" fill="black"/>
<mask id="mask0_269_208" style="mask-type:luminance" maskUnits="userSpaceOnUse" x="0" y="1" width="53" height="47">
<path d="M52.2978 1.30664H0V47.9797H52.2978V1.30664Z" fill="white"/>
</mask>
<g mask="url(#mask0_269_208)">
<path d="M52.0283 38.105L43.3951 47.3441C43.2075 47.5447 42.9804 47.7047 42.728 47.8141C42.4757 47.9235 42.2035 47.9799 41.9284 47.9797H1.00227C0.806983 47.9797 0.615961 47.9227 0.452661 47.8159C0.289361 47.7091 0.160901 47.5569 0.0830637 47.3782C0.00522578 47.1995 -0.0185984 47.002 0.0145181 46.81C0.0476346 46.6179 0.136249 46.4397 0.269474 46.2972L8.90927 37.0582C9.09644 36.8581 9.32282 36.6984 9.57435 36.589C9.82588 36.4797 10.0972 36.423 10.3715 36.4225H51.2954C51.4908 36.4226 51.6818 36.4795 51.8451 36.5864C52.0084 36.6932 52.1368 36.8454 52.2147 37.024C52.2925 37.2028 52.3163 37.4003 52.2833 37.5923C52.2501 37.7843 52.1615 37.9626 52.0283 38.105ZM43.3951 19.5003C43.2075 19.2995 42.9804 19.1395 42.728 19.0302C42.4757 18.9208 42.2035 18.8645 41.9284 18.8646H1.00227C0.806983 18.8646 0.615961 18.9216 0.452661 19.0284C0.289361 19.1352 0.160901 19.2874 0.0830637 19.4661C0.00522578 19.6448 -0.0185984 19.8423 0.0145181 20.0344C0.0476346 20.2264 0.136249 20.4046 0.269474 20.5471L8.90927 29.7861C9.09644 29.9863 9.32282 30.1459 9.57435 30.2553C9.82588 30.3646 10.0972 30.4213 10.3715 30.4217H51.2954C51.4908 30.4217 51.6818 30.3648 51.8451 30.2579C52.0084 30.1511 52.1368 29.9989 52.2147 29.8202C52.2925 29.6416 52.3163 29.444 52.2833 29.252C52.2501 29.06 52.1615 28.8817 52.0283 28.7393L43.3951 19.5003ZM1.00227 12.8638H41.9284C42.2035 12.8639 42.4757 12.8076 42.728 12.6982C42.9804 12.5888 43.2075 12.4288 43.3951 12.2282L52.0283 2.98909C52.1615 2.84662 52.2501 2.66842 52.2833 2.47638C52.3163 2.28434 52.2925 2.08684 52.2147 1.90813C52.1368 1.72941 52.0084 1.57729 51.8451 1.47043C51.6818 1.36358 51.4908 1.30665 51.2954 1.30664H10.3715C10.0972 1.30711 9.82588 1.36376 9.57435 1.4731C9.32282 1.58243 9.09644 1.74212 8.90927 1.94228L0.271701 11.1813C0.138605 11.3237 0.0500297 11.5017 0.0168381 11.6935C-0.0163536 11.8853 0.00728151 12.0826 0.0848451 12.2613C0.162408 12.4399 0.290527 12.5921 0.453491 12.6991C0.616454 12.8061 0.807177 12.8633 1.00227 12.8638Z" fill="url(#paint0_linear_269_208)"/>
</g>
<defs>
<linearGradient id="paint0_linear_269_208" x1="4.41455" y1="49.0921" x2="47.2293" y2="0.72361" gradientUnits="userSpaceOnUse">
<stop offset="0.08" stop-color="#9945FF"/>
<stop offset="0.3" stop-color="#8752F3"/>
<stop offset="0.5" stop-color="#5497D5"/>
<stop offset="0.6" stop-color="#43B4CA"/>
<stop offset="0.72" stop-color="#28E0B9"/>
<stop offset="0.97" stop-color="#19FB9B"/>
</linearGradient>
</defs>
</svg>
